<?xml version="1.0" encoding="utf-8"?>
<!-- Generator: Adobe Illustrator 21.0.2, SVG Export Plug-In . SVG Version: 6.00 Build 0)  -->
<svg version="1.1" id="Layer_1" xmlns="http://www.w3.org/2000/svg" xmlns:xlink="http://www.w3.org/1999/xlink" x="0px" y="0px"
	 viewBox="0 0 31.9 32" style="enable-background:new 0 0 31.9 32;" xml:space="preserve">
<style type="text/css">
	.st0{fill:#840000;}
</style>
<g>
	<path class="st0" d="M18.1,23.2c0,4.7-3.8,8.5-8.5,8.5s-8.5-3.8-8.5-8.5s3.8-8.5,8.5-8.5S18.1,18.5,18.1,23.2z M9.6,18.2
		c-2.7,0-5,2.2-5,5s2.2,5,5,5s5-2.2,5-5S12.3,18.2,9.6,18.2z"/>
	<rect x="8.1" y="2.4" class="st0" width="2.9" height="11.1"/>
	
		<rect x="19.8" y="-0.7" transform="matrix(0.7745 0.6326 -0.6326 0.7745 10.0168 -11.5905)" class="st0" width="2.9" height="17.9"/>
	
		<rect x="23.2" y="14.3" transform="matrix(-1.836970e-16 1 -1 -1.836970e-16 44.4117 -4.8511)" class="st0" width="2.9" height="11.1"/>
</g>
</svg>
